<svg xmlns="http://www.w3.org/2000/svg" viewBox="0 0 357 357"><defs><style>.cls-1{fill:#ea833d;}.cls-2{fill:#fff;}</style></defs><g id="Layer_1" data-name="Layer 1"><circle class="cls-1" cx="178.5" cy="178.5" r="178.5"/></g><g id="Layer_2" data-name="Layer 2"><path class="cls-2" d="M77.64,174.82l121-37s12.32-10.09,37.09,0l119.78,37s14.56,3.82,0,9.75L227.81,224.68s-7.86,5-20.75,0L77.64,186.16S64.2,179.3,77.64,174.82Z" transform="translate(-28 -43)"/><path class="cls-2" d="M140.39,215.16,205,234.21s11.55,4.48,26.48,0l59.86-19.05.29,45.94s0,7.84-12.33,13.45c0,0-55,28-127.8,0,0,0-12.26-5.74-11.14-16.88Z" transform="translate(-28 -43)"/><path class="cls-2" d="M102.73,193.63V237s4.39-1.67,5.9,0V195.39Z" transform="translate(-28 -43)"/><circle class="cls-2" cx="79.34" cy="206.34" r="10.64"/><path class="cls-2" d="M102.73,262.44s7.14,2.46,11.19,0c0,0,7.42,14.35,9.66,63.65,0,0-16.14,19.05-37.2,0C86.38,326.09,99.8,271.62,102.73,262.44Z" transform="translate(-28 -43)"/><polygon class="cls-2" points="175.27 92.41 161.99 97.49 171.78 100.45 175.27 92.41"/><polygon class="cls-2" points="196.44 182.81 204.5 180.28 196.44 176.22 196.44 182.81"/><polygon class="cls-2" points="200.47 92.41 225.9 100.45 209.87 109.41 200.47 92.41"/><polygon class="cls-2" points="168.63 188.73 180.51 192.19 175.27 199.65 168.63 188.73"/></g></svg>